<svg width="171" height="40" viewbox="0 0 171 40" fill="none" xmlns="http://www.w3.org/2000/svg">
  <path d="M0.0714111 24.8455V40L21.9473 28.6993V13.5562L0.0714111 24.8455Z" fill="#FF8C00" />
  <path d="M0.0714111 15.1545L21.9473 28.6994V13.5563L0.0714111 0V15.1545Z" fill="#FFC905" />
  <path
    d="M41.4202 24.8455L41.1482 28.3592C39.8674 28.9373 39.1986 29.1186 37.6684 29.1186C35.2882 29.1186 32.9646 27.6225 32.9646 24.052V17.0245H30.4596V13.6015H32.9646V10.0537H36.9997V13.6015H41.0915V17.0245H36.9997V23.8593C36.9997 25.2082 37.7365 25.7182 38.6432 25.7182C39.2893 25.7182 39.9921 25.5709 40.9668 24.8341H41.4202V24.8455Z"
    fill="currentColor" />
  <path
    d="M53.7864 18.1242C53.1744 17.3874 52.1656 16.9 51.1341 16.9C49.3999 16.9 47.779 17.9655 47.779 20.4704V28.6881H43.7439V13.6016H47.779V15.0978C48.7312 13.8736 50.1933 13.1709 51.6555 13.1709C52.8116 13.1709 53.4577 13.4203 54.1038 13.8736L54.3758 18.1128H53.7864V18.1242Z"
    fill="currentColor" />
  <path
    d="M60.0657 22.4539C60.0657 24.4715 61.2898 25.3896 62.9334 25.3896C64.8602 25.3896 66.3564 23.8935 66.3564 21.3885V13.6016H70.3916V28.688H66.3564V26.8291C65.291 28.2006 63.3981 29.1187 61.4145 29.1187C58.2408 29.1187 56.0419 27.4072 56.0419 23.8935V13.6016H60.077V22.4539H60.0657Z"
    fill="currentColor" />
  <path
    d="M73.962 23.8594C75.0275 24.6868 76.3763 25.3896 78.0198 25.3896C79.1193 25.3896 79.9467 24.9929 79.9467 24.1428C79.9467 23.2587 79.1533 22.8619 76.9884 22.1252C74.6988 21.3658 73.3273 19.8696 73.3273 17.852C73.3273 15.007 75.7416 13.1821 78.8813 13.1821C80.5248 13.1821 81.7263 13.4882 82.8484 14.1569L82.9958 17.9994H82.7804C81.5336 17.1719 80.4568 16.5939 78.9039 16.5939C77.8951 16.5939 77.1584 17.0473 77.1584 17.6933C77.1584 18.5774 77.8951 19.0082 80.0601 19.7336C82.1683 20.4363 83.9705 21.3204 83.9705 24.1314C83.9705 27.4638 81.2275 29.1074 78.2352 29.1074C75.9796 29.1074 74.2 28.5293 72.8625 27.6452L73.7807 23.8594H73.962Z"
    fill="currentColor" />
  <path
    d="M95.6109 24.8455L95.3389 28.3592C94.0581 28.9373 93.3893 29.1186 91.8591 29.1186C89.4788 29.1186 87.1552 27.6225 87.1552 24.052V17.0245H84.6503V13.6015H87.1552V10.0537H91.1904V13.6015H95.2822V17.0245H91.1904V23.8593C91.1904 25.2082 91.9271 25.7182 92.8339 25.7182C93.48 25.7182 94.1827 25.5709 95.1575 24.8341H95.6109V24.8455Z"
    fill="currentColor" />
  <path
    d="M117.136 19.5863C117.136 17.7501 116.286 16.9 114.812 16.9C113.044 16.9 111.571 18.3622 111.571 20.5611V28.6881H107.535V19.5863C107.535 17.7501 106.742 16.9 105.189 16.9C103.421 16.9 101.947 18.4302 101.947 20.7198V28.6881H97.9123V13.6016H101.947V15.4605C102.888 14.1457 104.849 13.1709 106.708 13.1709C108.76 13.1709 110.346 13.8396 111.14 15.3132C112.455 13.9417 114.076 13.1709 116.331 13.1709C119.233 13.1709 121.16 14.9391 121.16 17.9655V28.6881H117.125V19.5863H117.136Z"
    fill="currentColor" />
  <path
    d="M123.517 21.1504C123.517 16.7526 126.873 13.1821 131.089 13.1821C133.073 13.1821 134.75 13.9189 135.612 14.9843V13.6015H139.647V28.688H135.612V27.3165C134.512 28.3593 133.265 29.1187 130.851 29.1187C127.247 29.1187 123.517 26.1263 123.517 21.1504ZM135.793 21.1504C135.793 18.8268 134.24 16.9112 131.667 16.9112C129.105 16.9112 127.541 18.8381 127.541 21.1504C127.541 23.474 129.094 25.3896 131.667 25.3896C134.229 25.3896 135.793 23.4627 135.793 21.1504Z"
    fill="currentColor" />
  <path
    d="M152.919 18.1242C152.307 17.3874 151.298 16.9 150.267 16.9C148.533 16.9 146.912 17.9655 146.912 20.4704V28.6881H142.877V13.6016H146.912V15.0978C147.853 13.8736 149.326 13.1709 150.788 13.1709C151.944 13.1709 152.59 13.4203 153.236 13.8736L153.509 18.1128H152.919V18.1242Z"
    fill="currentColor" />
  <path
    d="M165.943 13.6016L162.27 21.5132L158.575 13.6016H154.427L160.355 25.7523L155.254 35.5908H159.403L170.091 13.6016H165.943Z"
    fill="currentColor" />
</svg>
